<svg xmlns="http://www.w3.org/2000/svg" viewBox="0 0 50.2 55.43"><defs><style>.cls-1,.cls-2{fill:none;stroke:#b19360;}.cls-1{stroke-miterlimit:10;}.cls-2{stroke-linecap:round;stroke-linejoin:round;}</style></defs><g id="Layer_2" data-name="Layer 2"><g id="Layer_1-2" data-name="Layer 1"><path class="cls-1" d="M13,1.78V9.52a1.28,1.28,0,0,1-1.28,1.28h-.24a1.28,1.28,0,0,1-1.29-1.28V1.78A1.28,1.28,0,0,1,11.47.5h.24A1.28,1.28,0,0,1,13,1.78Z"/><path class="cls-2" d="M40.37,1.78V9.52a1.28,1.28,0,0,1-1.28,1.28h-.24a1.28,1.28,0,0,1-1.29-1.28V1.78A1.28,1.28,0,0,1,38.85.5h.24A1.28,1.28,0,0,1,40.37,1.78Z"/><path class="cls-1" d="M49.7,10.55V50.1a4.82,4.82,0,0,1-4.82,4.83H5.32A4.82,4.82,0,0,1,.5,50.1V10.55A4.82,4.82,0,0,1,5.32,5.73h4.86V9.52a1.28,1.28,0,0,0,1.29,1.28h.24A1.28,1.28,0,0,0,13,9.52V5.73H37.56V9.52a1.28,1.28,0,0,0,1.29,1.28h.24a1.28,1.28,0,0,0,1.28-1.28V5.73h4.51A4.82,4.82,0,0,1,49.7,10.55Z"/><path class="cls-2" d="M14.58,34.38l6.22,6.44a2,2,0,0,0,2.87,0L36,28.54"/><line class="cls-2" x1="0.5" y1="17.85" x2="49.7" y2="17.85"/></g></g></svg>