<svg xmlns="http://www.w3.org/2000/svg" viewBox="0 0 50.2 55.66"><defs><style>.cls-1{fill:none;stroke:#b19360;stroke-linecap:round;stroke-linejoin:round;}</style></defs><g id="Layer_2" data-name="Layer 2"><g id="Layer_1-2" data-name="Layer 1"><path class="cls-1" d="M26.66,5.55a2.06,2.06,0,0,1,2.19-1.89h0A2.06,2.06,0,0,1,31,5.55V26"/><path class="cls-1" d="M22.24,6.66V2.39A2.07,2.07,0,0,1,24.45.5h0a2.07,2.07,0,0,1,2.21,1.89V20.14"/><path class="cls-1" d="M17.5,22.29V5.12a1.89,1.89,0,0,1,1.88-1.89h1a1.89,1.89,0,0,1,1.89,1.89v14"/><path class="cls-1" d="M17.5,11.17a1.89,1.89,0,0,0-1.89-1.88h0a2.53,2.53,0,0,0-2.53,2.53V30a10.63,10.63,0,0,0,1.76,5.86L16.24,38a7.47,7.47,0,0,1,1.26,4.15v2.52"/><path class="cls-1" d="M24.77,32.48a6.39,6.39,0,0,1,5.86-6.35,3.11,3.11,0,0,0,2.28-1.39l3.85-6.11A2.34,2.34,0,0,1,40.14,18h0a2.34,2.34,0,0,1,.73,2.92l-3.47,7.2a28.76,28.76,0,0,0-1.47,3.59c-.83,2.52-2.94,7.61-6.46,8.09v4.87"/><polyline class="cls-1" points="30.55 48.8 30.55 44.66 16.33 44.66 16.33 48.8"/><polyline class="cls-1" points="14.4 55.16 14.4 48.8 24.13 48.8"/><polyline class="cls-1" points="28.14 48.8 32.4 48.8 32.4 55.16"/><line class="cls-1" x1="2.91" y1="13.68" x2="5.96" y2="15.71"/><line class="cls-1" x1="0.5" y1="23.75" x2="3.85" y2="23.75"/><line class="cls-1" x1="46.36" y1="23.75" x2="49.7" y2="23.75"/><line class="cls-1" x1="44.21" y1="32.03" x2="46.81" y2="33.28"/><line class="cls-1" x1="3.3" y1="32.75" x2="6.21" y2="31.09"/></g></g></svg>