<svg xmlns="http://www.w3.org/2000/svg" viewBox="0 0 58.34 56.07"><defs><style>.cls-1{fill:none;stroke:#b19360;stroke-miterlimit:10;}.cls-2{fill:#b19360;}</style></defs><g id="Layer_2" data-name="Layer 2"><g id="Layer_1-2" data-name="Layer 1"><path class="cls-1" d="M47.9,29.7,23.35,54.25a4.5,4.5,0,0,1-6.37,0L1.82,39.08a4.49,4.49,0,0,1,0-6.36L16.15,18.38,26.24,8.28A4.49,4.49,0,0,1,29.66,7l9.66.51,4.88.25A4.5,4.5,0,0,1,48.47,12l.24,4.88.5,9.42A4.48,4.48,0,0,1,47.9,29.7Z"/><path class="cls-1" d="M41.55,16.32a9.27,9.27,0,0,1-2.49-5.61A9.4,9.4,0,1,1,56.75,14.3"/><circle class="cls-2" cx="41.4" cy="16.34" r="1.86"/></g></g></svg>